<svg width="25" height="24" viewBox="0 0 25 24" fill="none" xmlns="http://www.w3.org/2000/svg">
<mask id="mask0_1384_2033" style="mask-type:alpha" maskUnits="userSpaceOnUse" x="0" y="0" width="25" height="24">
<rect x="0.25" width="24" height="24" fill="#D9D9D9"/>
</mask>
<g mask="url(#mask0_1384_2033)">
<path d="M9 22.4248C8.23333 22.4248 7.54583 22.2248 6.9375 21.8248C6.32917 21.4248 5.85833 20.8748 5.525 20.1748C5.25833 20.5248 4.92083 20.7956 4.5125 20.9873C4.10417 21.179 3.68333 21.2748 3.25 21.2748C2.4 21.2748 1.6875 20.9831 1.1125 20.3998C0.5375 19.8165 0.25 19.1081 0.25 18.2748C0.25 17.5581 0.483333 16.9123 0.95 16.3373C1.41667 15.7623 2.00833 15.4331 2.725 15.3498C2.49167 15.0165 2.3125 14.6623 2.1875 14.2873C2.0625 13.9123 2 13.5165 2 13.0998C2 12.4331 2.17083 11.8081 2.5125 11.2248C2.85417 10.6415 3.33333 10.1665 3.95 9.7998C4.03333 10.0998 4.14583 10.4206 4.2875 10.7623C4.42917 11.104 4.59167 11.3998 4.775 11.6498C4.54167 11.8331 4.35833 12.054 4.225 12.3123C4.09167 12.5706 4.025 12.8415 4.025 13.1248C4.025 14.0581 4.40833 14.6331 5.175 14.8498C5.94167 15.0665 6.66667 15.2415 7.35 15.3748L7.825 16.1748C7.64167 16.7081 7.48333 17.1623 7.35 17.5373C7.21667 17.9123 7.15 18.2498 7.15 18.5498C7.15 19.0498 7.32917 19.4873 7.6875 19.8623C8.04583 20.2373 8.48333 20.4248 9 20.4248C9.63333 20.4248 10.1583 20.1415 10.575 19.5748C10.9917 19.0081 11.3333 18.3415 11.6 17.5748C11.8667 16.8081 12.0708 16.0331 12.2125 15.2498C12.3542 14.4665 12.4667 13.8665 12.55 13.4498L14.5 13.9748C14.35 14.7248 14.1667 15.5831 13.95 16.5498C13.7333 17.5165 13.4292 18.4373 13.0375 19.3123C12.6458 20.1873 12.1292 20.9248 11.4875 21.5248C10.8458 22.1248 10.0167 22.4248 9 22.4248ZM3.25 19.2748C3.53333 19.2748 3.77083 19.179 3.9625 18.9873C4.15417 18.7956 4.25 18.5581 4.25 18.2748C4.25 17.9915 4.15417 17.754 3.9625 17.5623C3.77083 17.3706 3.53333 17.2748 3.25 17.2748C2.96667 17.2748 2.72917 17.3706 2.5375 17.5623C2.34583 17.754 2.25 17.9915 2.25 18.2748C2.25 18.5581 2.34583 18.7956 2.5375 18.9873C2.72917 19.179 2.96667 19.2748 3.25 19.2748ZM10.35 15.3248C9.58333 14.6415 8.8875 14.004 8.2625 13.4123C7.6375 12.8206 7.1 12.2456 6.65 11.6873C6.2 11.129 5.85417 10.5706 5.6125 10.0123C5.37083 9.45397 5.25 8.8748 5.25 8.2748C5.25 7.19147 5.62083 6.27897 6.3625 5.5373C7.10417 4.79564 8.01667 4.4248 9.1 4.4248C9.16667 4.4248 9.225 4.42897 9.275 4.4373C9.325 4.44564 9.38333 4.4498 9.45 4.4498C9.38333 4.28314 9.33333 4.11647 9.3 3.9498C9.26667 3.78314 9.25 3.60814 9.25 3.4248C9.25 2.59147 9.54167 1.88314 10.125 1.2998C10.7083 0.716471 11.4167 0.424805 12.25 0.424805C13.0833 0.424805 13.7917 0.716471 14.375 1.2998C14.9583 1.88314 15.25 2.59147 15.25 3.4248C15.25 3.60814 15.2333 3.77897 15.2 3.9373C15.1667 4.09564 15.1167 4.25814 15.05 4.4248H15.4C16.4 4.4248 17.25 4.74564 17.95 5.3873C18.65 6.02897 19.0667 6.8248 19.2 7.7748C18.9 7.7248 18.5625 7.6998 18.1875 7.6998C17.8125 7.6998 17.4667 7.71647 17.15 7.7498C17.0333 7.36647 16.8208 7.0498 16.5125 6.7998C16.2042 6.5498 15.8333 6.4248 15.4 6.4248C14.8167 6.4248 14.3625 6.59564 14.0375 6.9373C13.7125 7.27897 13.2667 7.7748 12.7 8.4248H11.775C11.1917 7.74147 10.7375 7.2373 10.4125 6.9123C10.0875 6.58731 9.65 6.4248 9.1 6.4248C8.56667 6.4248 8.125 6.5998 7.775 6.9498C7.425 7.2998 7.25 7.74147 7.25 8.2748C7.25 8.65814 7.35833 9.05397 7.575 9.46231C7.79167 9.87064 8.09583 10.304 8.4875 10.7623C8.87917 11.2206 9.35417 11.7081 9.9125 12.2248C10.4708 12.7415 11.0917 13.2998 11.775 13.8998L10.35 15.3248ZM12.25 4.4248C12.5333 4.4248 12.7708 4.32897 12.9625 4.1373C13.1542 3.94564 13.25 3.70814 13.25 3.4248C13.25 3.14147 13.1542 2.90397 12.9625 2.7123C12.7708 2.52064 12.5333 2.4248 12.25 2.4248C11.9667 2.4248 11.7292 2.52064 11.5375 2.7123C11.3458 2.90397 11.25 3.14147 11.25 3.4248C11.25 3.70814 11.3458 3.94564 11.5375 4.1373C11.7292 4.32897 11.9667 4.4248 12.25 4.4248ZM15.475 22.4248C15.1083 22.4248 14.7458 22.3748 14.3875 22.2748C14.0292 22.1748 13.6833 22.0165 13.35 21.7998C13.5333 21.5665 13.7167 21.2915 13.9 20.9748C14.0833 20.6581 14.25 20.3665 14.4 20.0998C14.5833 20.2165 14.7667 20.2998 14.95 20.3498C15.1333 20.3998 15.3167 20.4248 15.5 20.4248C16.0333 20.4248 16.4792 20.2373 16.8375 19.8623C17.1958 19.4873 17.375 19.0415 17.375 18.5248C17.375 18.2081 17.3083 17.8665 17.175 17.4998C17.0417 17.1331 16.8833 16.6831 16.7 16.1498L17.175 15.3498C17.875 15.2165 18.6042 15.0415 19.3625 14.8248C20.1208 14.6081 20.5 14.0331 20.5 13.0998C20.5 12.4331 20.2542 11.9498 19.7625 11.6498C19.2708 11.3498 18.7333 11.1998 18.15 11.1998C17.45 11.1998 16.6333 11.3331 15.7 11.5998C14.7667 11.8665 13.675 12.2081 12.425 12.6248L11.9 10.6748C13.2 10.2581 14.3583 9.90814 15.375 9.6248C16.3917 9.34147 17.325 9.19981 18.175 9.19981C19.325 9.19981 20.3333 9.54147 21.2 10.2248C22.0667 10.9081 22.5 11.8665 22.5 13.0998C22.5 13.5165 22.4375 13.9123 22.3125 14.2873C22.1875 14.6623 22.0083 15.0165 21.775 15.3498C22.4917 15.4331 23.0833 15.7623 23.55 16.3373C24.0167 16.9123 24.25 17.5581 24.25 18.2748C24.25 19.1081 23.9625 19.8165 23.3875 20.3998C22.8125 20.9831 22.1 21.2748 21.25 21.2748C20.8167 21.2748 20.3958 21.179 19.9875 20.9873C19.5792 20.7956 19.2417 20.5248 18.975 20.1748C18.6417 20.8748 18.1708 21.4248 17.5625 21.8248C16.9542 22.2248 16.2583 22.4248 15.475 22.4248ZM21.275 19.2748C21.5583 19.2748 21.7917 19.179 21.975 18.9873C22.1583 18.7956 22.25 18.5581 22.25 18.2748C22.25 17.9915 22.1542 17.7498 21.9625 17.5498C21.7708 17.3498 21.5333 17.2498 21.25 17.2498C20.9667 17.2498 20.7292 17.3456 20.5375 17.5373C20.3458 17.729 20.25 17.9665 20.25 18.2498C20.25 18.5331 20.35 18.7748 20.55 18.9748C20.75 19.1748 20.9917 19.2748 21.275 19.2748Z" fill="#019780"/>
</g>
</svg>
