<svg width="25" height="24" viewBox="0 0 25 24" fill="none" xmlns="http://www.w3.org/2000/svg">
<mask id="mask0_1384_1980" style="mask-type:alpha" maskUnits="userSpaceOnUse" x="0" y="0" width="25" height="24">
<rect x="0.666504" width="24" height="24" fill="#D9D9D9"/>
</mask>
<g mask="url(#mask0_1384_1980)">
<path d="M19.0915 22.2999C18.8082 22.2999 18.5707 22.204 18.379 22.0124C18.1873 21.8207 18.0915 21.5832 18.0915 21.2999C18.0915 21.1665 18.1165 21.0332 18.1665 20.8999C18.2165 20.7665 18.2832 20.6582 18.3665 20.5749C19.0832 19.8582 19.6457 19.0332 20.054 18.0999C20.4623 17.1665 20.6665 16.1499 20.6665 15.0499C20.6665 13.9665 20.4623 12.954 20.054 12.0124C19.6457 11.0707 19.0832 10.2415 18.3665 9.52487C18.2832 9.44153 18.2165 9.3332 18.1665 9.19987C18.1165 9.06653 18.0915 8.9332 18.0915 8.79987C18.0915 8.51653 18.1873 8.27903 18.379 8.08737C18.5707 7.8957 18.8082 7.79987 19.0915 7.79987C19.2248 7.79987 19.354 7.82903 19.479 7.88737C19.604 7.9457 19.7082 8.01653 19.7915 8.09987C20.6915 8.99987 21.3957 10.0457 21.904 11.2374C22.4123 12.429 22.6665 13.6999 22.6665 15.0499C22.6665 16.4165 22.4123 17.6915 21.904 18.8749C21.3957 20.0582 20.6915 21.0999 19.7915 21.9999C19.7082 22.0832 19.604 22.154 19.479 22.2124C19.354 22.2707 19.2248 22.2999 19.0915 22.2999ZM16.2415 19.4499C15.9582 19.4499 15.7207 19.354 15.529 19.1624C15.3373 18.9707 15.2415 18.7332 15.2415 18.4499C15.2415 18.3165 15.2707 18.1874 15.329 18.0624C15.3873 17.9374 15.4582 17.8332 15.5415 17.7499C15.8915 17.3999 16.1665 16.9957 16.3665 16.5374C16.5665 16.079 16.6665 15.5832 16.6665 15.0499C16.6665 14.5165 16.5623 14.0207 16.354 13.5624C16.1457 13.104 15.8748 12.6999 15.5415 12.3499C15.4415 12.2665 15.3665 12.1624 15.3165 12.0374C15.2665 11.9124 15.2415 11.7832 15.2415 11.6499C15.2415 11.3665 15.3373 11.129 15.529 10.9374C15.7207 10.7457 15.9582 10.6499 16.2415 10.6499C16.3748 10.6499 16.5082 10.6749 16.6415 10.7249C16.7748 10.7749 16.8832 10.8499 16.9665 10.9499C17.4998 11.4832 17.9165 12.0999 18.2165 12.7999C18.5165 13.4999 18.6665 14.2499 18.6665 15.0499C18.6665 15.8499 18.5165 16.5999 18.2165 17.2999C17.9165 17.9999 17.4998 18.6165 16.9665 19.1499C16.8832 19.2499 16.7748 19.3249 16.6415 19.3749C16.5082 19.4249 16.3748 19.4499 16.2415 19.4499ZM8.6665 14.9999H6.6665V15.2749C6.6665 15.8582 6.84567 16.3707 7.204 16.8124C7.56234 17.254 8.0165 17.5499 8.5665 17.6999L8.8665 17.7749C9.53317 17.9415 9.90817 18.3582 9.9915 19.0249C10.0748 19.6915 9.8165 20.1915 9.2165 20.5249C8.3665 21.0082 7.47484 21.3582 6.5415 21.5749C5.60817 21.7915 4.64984 21.9249 3.6665 21.9749C3.38317 21.9915 3.14567 21.904 2.954 21.7124C2.76234 21.5207 2.6665 21.2832 2.6665 20.9999C2.6665 20.7165 2.76234 20.479 2.954 20.2874C3.14567 20.0957 3.38317 19.9915 3.6665 19.9749C4.2665 19.9415 4.854 19.8707 5.429 19.7624C6.004 19.654 6.57484 19.4999 7.1415 19.2999C6.37484 18.9165 5.77067 18.3624 5.329 17.6374C4.88734 16.9124 4.6665 16.1249 4.6665 15.2749V13.9999C4.6665 13.7165 4.76234 13.479 4.954 13.2874C5.14567 13.0957 5.38317 12.9999 5.6665 12.9999H8.6665V10.9999C8.6665 10.7165 8.76234 10.479 8.954 10.2874C9.14567 10.0957 9.38317 9.99987 9.6665 9.99987H12.0415L9.2165 4.34987C9.08317 4.09987 9.06234 3.8457 9.154 3.58737C9.24567 3.32903 9.4165 3.1332 9.6665 2.99987C9.9165 2.86653 10.1707 2.8457 10.429 2.93737C10.6873 3.02903 10.8832 3.19987 11.0165 3.44987L13.8415 9.09987C14.1748 9.76653 14.1498 10.4165 13.7665 11.0499C13.3832 11.6832 12.8165 11.9999 12.0665 11.9999H10.6665V12.9999C10.6665 13.5499 10.4707 14.0207 10.079 14.4124C9.68734 14.804 9.2165 14.9999 8.6665 14.9999Z" fill="#E76F51"/>
</g>
</svg>
