<svg width="25" height="24" viewBox="0 0 25 24" fill="none" xmlns="http://www.w3.org/2000/svg">
<mask id="mask0_1384_1990" style="mask-type:alpha" maskUnits="userSpaceOnUse" x="0" y="0" width="25" height="24">
<rect x="0.666504" width="24" height="24" fill="#D9D9D9"/>
</mask>
<g mask="url(#mask0_1384_1990)">
<path d="M13.6665 12.4L10.0665 16C9.88317 16.1833 9.64984 16.275 9.3665 16.275C9.08317 16.275 8.84984 16.1833 8.6665 16C8.48317 15.8167 8.3915 15.5833 8.3915 15.3C8.3915 15.0167 8.48317 14.7833 8.6665 14.6L12.2665 11H9.6665C9.38317 11 9.14567 10.9042 8.954 10.7125C8.76234 10.5208 8.6665 10.2833 8.6665 10C8.6665 9.71667 8.76234 9.47917 8.954 9.2875C9.14567 9.09583 9.38317 9 9.6665 9H14.6665C14.9498 9 15.1873 9.09583 15.379 9.2875C15.5707 9.47917 15.6665 9.71667 15.6665 10V15C15.6665 15.2833 15.5707 15.5208 15.379 15.7125C15.1873 15.9042 14.9498 16 14.6665 16C14.3832 16 14.1457 15.9042 13.954 15.7125C13.7623 15.5208 13.6665 15.2833 13.6665 15V12.4ZM13.6665 5C13.3832 5 13.1457 4.90417 12.954 4.7125C12.7623 4.52083 12.6665 4.28333 12.6665 4C12.6665 3.71667 12.7623 3.47917 12.954 3.2875C13.1457 3.09583 13.3832 3 13.6665 3H19.6665C20.2165 3 20.6873 3.19583 21.079 3.5875C21.4707 3.97917 21.6665 4.45 21.6665 5V11C21.6665 11.2833 21.5707 11.5208 21.379 11.7125C21.1873 11.9042 20.9498 12 20.6665 12C20.3832 12 20.1457 11.9042 19.954 11.7125C19.7623 11.5208 19.6665 11.2833 19.6665 11V5H13.6665ZM5.6665 21C5.1165 21 4.64567 20.8042 4.254 20.4125C3.86234 20.0208 3.6665 19.55 3.6665 19V4C3.6665 3.71667 3.76234 3.47917 3.954 3.2875C4.14567 3.09583 4.38317 3 4.6665 3C4.94984 3 5.18734 3.09583 5.379 3.2875C5.57067 3.47917 5.6665 3.71667 5.6665 4V19H20.6665C20.9498 19 21.1873 19.0958 21.379 19.2875C21.5707 19.4792 21.6665 19.7167 21.6665 20C21.6665 20.2833 21.5707 20.5208 21.379 20.7125C21.1873 20.9042 20.9498 21 20.6665 21H5.6665Z" fill="#E76F51"/>
</g>
</svg>
