<svg width="25" height="24" viewBox="0 0 25 24" fill="none" xmlns="http://www.w3.org/2000/svg">
<mask id="mask0_1384_1999" style="mask-type:alpha" maskUnits="userSpaceOnUse" x="0" y="0" width="25" height="24">
<rect x="0.333496" width="24" height="24" fill="#D9D9D9"/>
</mask>
<g mask="url(#mask0_1384_1999)">
<path d="M12.3335 11.325L14.7085 13.7C14.8918 13.8833 15.121 13.975 15.396 13.975C15.671 13.975 15.9085 13.8833 16.1085 13.7C16.3085 13.5 16.4085 13.2625 16.4085 12.9875C16.4085 12.7125 16.3085 12.475 16.1085 12.275L13.0335 9.2C12.8335 9 12.6002 8.9 12.3335 8.9C12.0668 8.9 11.8335 9 11.6335 9.2L8.5335 12.3C8.3335 12.5 8.23766 12.7333 8.246 13C8.25433 13.2667 8.3585 13.5 8.5585 13.7C8.7585 13.8833 8.99183 13.9792 9.2585 13.9875C9.52516 13.9958 9.7585 13.9 9.9585 13.7L12.3335 11.325ZM12.3335 22C10.9502 22 9.65016 21.7375 8.4335 21.2125C7.21683 20.6875 6.1585 19.975 5.2585 19.075C4.3585 18.175 3.646 17.1167 3.121 15.9C2.596 14.6833 2.3335 13.3833 2.3335 12C2.3335 10.6167 2.596 9.31667 3.121 8.1C3.646 6.88333 4.3585 5.825 5.2585 4.925C6.1585 4.025 7.21683 3.3125 8.4335 2.7875C9.65016 2.2625 10.9502 2 12.3335 2C13.7168 2 15.0168 2.2625 16.2335 2.7875C17.4502 3.3125 18.5085 4.025 19.4085 4.925C20.3085 5.825 21.021 6.88333 21.546 8.1C22.071 9.31667 22.3335 10.6167 22.3335 12C22.3335 13.3833 22.071 14.6833 21.546 15.9C21.021 17.1167 20.3085 18.175 19.4085 19.075C18.5085 19.975 17.4502 20.6875 16.2335 21.2125C15.0168 21.7375 13.7168 22 12.3335 22ZM12.3335 20C14.5668 20 16.4585 19.225 18.0085 17.675C19.5585 16.125 20.3335 14.2333 20.3335 12C20.3335 9.76667 19.5585 7.875 18.0085 6.325C16.4585 4.775 14.5668 4 12.3335 4C10.1002 4 8.2085 4.775 6.6585 6.325C5.1085 7.875 4.3335 9.76667 4.3335 12C4.3335 14.2333 5.1085 16.125 6.6585 17.675C8.2085 19.225 10.1002 20 12.3335 20Z" fill="#E76F51"/>
</g>
</svg>
