<svg width="48" height="49" viewBox="0 0 48 49" fill="none" xmlns="http://www.w3.org/2000/svg">
<mask id="mask0_404_833" style="mask-type:alpha" maskUnits="userSpaceOnUse" x="0" y="0" width="48" height="49">
<rect y="0.5" width="48" height="48" fill="#D9D9D9"/>
</mask>
<g mask="url(#mask0_404_833)">
<path d="M12.1 35.9425C13.995 34.6552 15.886 33.6455 17.773 32.9135C19.6603 32.1815 21.736 31.8155 24 31.8155C26.264 31.8155 28.3415 32.1815 30.2325 32.9135C32.1235 33.6455 34.0165 34.6552 35.9115 35.9425C37.3525 34.3732 38.4712 32.6323 39.2675 30.72C40.0635 28.8073 40.4615 26.734 40.4615 24.5C40.4615 19.8973 38.8685 16.0032 35.6825 12.8175C32.4968 9.6315 28.6027 8.0385 24 8.0385C19.3973 8.0385 15.5032 9.6315 12.3175 12.8175C9.1315 16.0032 7.5385 19.8973 7.5385 24.5C7.5385 26.734 7.9385 28.8073 8.7385 30.72C9.5385 32.6323 10.659 34.3732 12.1 35.9425ZM23.9875 25.269C22.3188 25.269 20.916 24.6963 19.779 23.551C18.6417 22.4057 18.073 20.9987 18.073 19.33C18.073 17.6613 18.6457 16.2583 19.791 15.121C20.9367 13.984 22.3438 13.4155 24.0125 13.4155C25.6812 13.4155 27.084 13.9882 28.221 15.1335C29.3583 16.2788 29.927 17.6858 29.927 19.3545C29.927 21.0232 29.3543 22.4262 28.209 23.5635C27.0633 24.7005 25.6562 25.269 23.9875 25.269ZM24.0235 42.5C21.5052 42.5 19.1548 42.0327 16.9725 41.098C14.7902 40.1633 12.8832 38.8775 11.2515 37.2405C9.61983 35.6032 8.33667 33.7 7.402 31.531C6.46733 29.3617 6 27.02 6 24.506C6 21.9917 6.46733 19.648 7.402 17.475C8.33667 15.302 9.6225 13.3968 11.2595 11.7595C12.8968 10.1225 14.8 8.83667 16.969 7.902C19.1383 6.96733 21.48 6.5 23.994 6.5C26.5083 6.5 28.852 6.96733 31.025 7.902C33.198 8.83667 35.1032 10.1225 36.7405 11.7595C38.3775 13.3968 39.6633 15.3025 40.598 17.4765C41.5327 19.6508 42 21.9842 42 24.4765C42 26.9948 41.5327 29.3452 40.598 31.5275C39.6633 33.7098 38.3775 35.6168 36.7405 37.2485C35.1032 38.8802 33.1975 40.1633 31.0235 41.098C28.8492 42.0327 26.5158 42.5 24.0235 42.5ZM24 40.9615C25.8847 40.9615 27.7597 40.6372 29.625 39.9885C31.4903 39.3398 33.1705 38.3617 34.6655 37.054C33.1705 35.9053 31.5205 35.0015 29.7155 34.3425C27.9102 33.6835 26.005 33.354 24 33.354C21.995 33.354 20.0835 33.677 18.2655 34.323C16.4475 34.9693 14.8167 35.8797 13.373 37.054C14.8423 38.3617 16.5097 39.3398 18.375 39.9885C20.2403 40.6372 22.1153 40.9615 24 40.9615ZM24.0055 23.731C25.2635 23.731 26.3085 23.3132 27.1405 22.4775C27.9725 21.6418 28.3885 20.595 28.3885 19.337C28.3885 18.079 27.9707 17.034 27.135 16.202C26.2993 15.37 25.2525 14.954 23.9945 14.954C22.7365 14.954 21.6915 15.3718 20.8595 16.2075C20.0275 17.0428 19.6115 18.0895 19.6115 19.3475C19.6115 20.6055 20.0293 21.6505 20.865 22.4825C21.7007 23.3148 22.7475 23.731 24.0055 23.731Z" fill="#E97D62"/>
</g>
</svg>
