<svg width="1440" height="742" viewBox="0 0 1440 742" fill="none" xmlns="http://www.w3.org/2000/svg">
<path d="M1315.98 386C1380.78 412 1458.31 472.5 1488.98 499.5V542.5H-53.522V456.5C-23.3553 440.333 53.7781 403.6 120.978 386C204.978 364 376.978 421 433.478 456.5C489.978 492 594.478 500.5 653.978 487.5C713.478 474.5 793.478 435.5 832.478 427C871.478 418.5 943.978 369 977.978 350C1011.98 331 1044.48 289.5 1086.98 279C1129.48 268.5 1234.98 353.5 1315.98 386Z" fill="url(#paint0_linear_403_5009)"/>
<path d="M1327.97 503.97C1397.69 540.38 1487.67 590.494 1523.94 611L-84.062 611L-84.062 529.977C-46.071 512.472 54.7685 472.161 154.198 450.955C278.486 424.448 369.252 488.466 500.759 477.463C632.266 466.46 717.875 375.934 816.893 349.427C915.91 322.919 958.198 422.947 1068.56 450.955C1178.92 478.963 1240.81 458.457 1327.97 503.97Z" fill="url(#paint1_linear_403_5009)"/>
<path d="M1224.99 509.446C1384.94 527.054 1464.88 511.313 1484.86 501.242L1461.28 836.685L-79.5272 790.417L-73.8394 601.002C-6.89215 576.001 177.798 530.223 380.983 547.13C634.963 568.262 685.731 526.768 851.643 482.227C1017.55 437.687 1025.06 487.435 1224.99 509.446Z" fill="url(#paint2_linear_403_5009)"/>
<path d="M1241 119.324C1262.6 141.724 1285 141.324 1293.5 138.324L1317.5 162.824C1309.5 176.657 1282.7 203.624 1239.5 200.824C1185.5 197.324 1231 189.324 1204.5 187.824C1178 186.324 1201.5 199.824 1180 212.324C1158.5 224.824 1155 209.824 1129 194.824C1103 179.824 1108.5 194.824 1078 204.324C1047.5 213.824 1035.5 194.824 1020 176.324C1004.5 157.824 1009 183.324 982 194.824C955 206.324 929 183.324 907 176.324C885 169.324 870 183.824 852 183.324C834 182.824 843.5 162.824 801.5 176.324C767.9 187.124 744.5 171.824 737 162.824C770 159.824 761.5 157.324 793.5 141.824C825.5 126.324 828.5 125.824 852 137.324C875.5 148.824 887 139.824 918 125.824C949 111.824 958.5 119.324 982 125.824C1005.5 132.324 1012.5 119.324 1039.5 104.824C1066.5 90.3236 1069.5 106.824 1090.5 104.824C1111.5 102.824 1099 76.8236 1129 80.3236C1159 83.8236 1148 111.324 1172.5 100.324C1197 89.3236 1214 91.3236 1241 119.324Z" fill="url(#paint3_linear_403_5009)"/>
<path d="M273.271 153.54C286.183 166.949 299 162 307.5 164.5C310.5 165.333 317.4 167.9 321 171.5C324.6 175.1 339.833 175.667 347 175.5C346 177.14 341.7 180.336 332.5 180C321 179.58 323.5 178.161 319 179.58C314.218 187.861 298.198 204.004 272.375 202.328C240.096 200.233 267.294 195.444 251.453 194.546C235.612 193.648 249.66 201.73 236.808 209.213C223.956 216.695 221.864 207.716 206.322 198.737C190.78 189.757 194.068 198.737 175.836 204.423C157.605 210.11 150.432 198.737 141.166 187.662C131.901 176.587 134.591 191.852 118.451 198.737C102.312 205.621 86.77 191.852 73.6193 187.662C60.4686 183.472 51.5022 192.152 40.7425 191.852C29.9828 191.553 35.6615 179.58 10.5556 187.662C-9.5292 194.127 -23.5168 184.968 -28 179.58C-8.2739 177.785 -13.3549 176.288 5.77347 167.009C24.9018 157.731 26.6951 157.431 40.7425 164.315C54.7898 171.2 61.6641 165.812 80.1947 157.431C98.7252 149.05 104.404 153.54 118.451 157.431C132.499 161.322 136.683 153.54 152.823 144.86C168.962 136.18 170.755 146.057 183.308 144.86C195.861 143.663 188.389 128.099 206.322 130.194C224.255 132.289 217.68 148.751 232.325 142.166C246.97 135.581 257.132 136.779 273.271 153.54Z" fill="url(#paint4_linear_403_5009)"/>
<path d="M500.319 51.7552C517.775 73.8314 535.104 65.6829 546.596 69.7988C550.652 71.1707 559.981 75.3963 564.848 81.3232C569.715 87.25 590.311 88.1829 600 87.9085C598.648 90.6083 592.834 95.8696 580.396 95.3171C564.848 94.6264 568.228 92.2893 562.144 94.6264C555.679 108.26 534.02 134.837 499.107 132.077C455.465 128.628 492.237 120.743 470.821 119.265C449.404 117.787 468.396 131.092 451.02 143.411C433.645 155.73 430.816 140.947 409.804 126.164C388.791 111.381 393.236 126.164 368.587 135.526C343.937 144.889 334.239 126.164 321.713 107.931C309.186 89.6987 312.823 114.83 291.002 126.164C269.182 137.498 248.169 114.83 230.389 107.931C212.609 101.032 200.487 115.323 185.94 114.83C171.393 114.337 179.07 94.6264 145.127 107.931C117.973 118.575 99.0613 103.496 93 94.6264C119.67 91.6697 112.8 89.2059 138.662 73.9299C164.523 58.654 166.948 58.1612 185.94 69.495C204.932 80.8288 214.226 71.9588 239.279 58.1612C264.333 44.3636 272.01 51.7552 291.002 58.1612C309.994 64.5673 315.651 51.7552 337.472 37.4648C359.293 23.1744 361.717 39.4359 378.689 37.4648C395.661 35.4937 385.558 9.86954 409.804 13.3189C434.049 16.7684 425.159 43.8708 444.959 33.0298C464.759 22.1888 478.498 24.1599 500.319 51.7552Z" fill="url(#paint5_linear_403_5009)"/>
<defs>
<linearGradient id="paint0_linear_403_5009" x1="717.728" y1="278.108" x2="717.728" y2="542.5" gradientUnits="userSpaceOnUse">
<stop stop-color="#FDECB7" stop-opacity="0.6"/>
<stop offset="1" stop-color="#FEFAE1"/>
</linearGradient>
<linearGradient id="paint1_linear_403_5009" x1="719.938" y1="345" x2="719.938" y2="611" gradientUnits="userSpaceOnUse">
<stop stop-color="#FDECB7" stop-opacity="0.5"/>
<stop offset="1" stop-color="#FDECB7" stop-opacity="0.878431"/>
</linearGradient>
<linearGradient id="paint2_linear_403_5009" x1="712.875" y1="511.086" x2="717.201" y2="607.51" gradientUnits="userSpaceOnUse">
<stop stop-color="#FBE396" stop-opacity="0.4"/>
<stop offset="1" stop-color="#FBE396"/>
</linearGradient>
<linearGradient id="paint3_linear_403_5009" x1="1027.25" y1="80" x2="1027.25" y2="216.98" gradientUnits="userSpaceOnUse">
<stop stop-color="#FFFDF8"/>
<stop offset="1" stop-color="#FFFBEB"/>
</linearGradient>
<linearGradient id="paint4_linear_403_5009" x1="159.5" y1="130" x2="159.5" y2="212" gradientUnits="userSpaceOnUse">
<stop stop-color="#FFFDF8"/>
<stop offset="1" stop-color="#FFFBF2"/>
</linearGradient>
<linearGradient id="paint5_linear_403_5009" x1="346.5" y1="13" x2="346.5" y2="148" gradientUnits="userSpaceOnUse">
<stop stop-color="#FFFDF8"/>
<stop offset="1" stop-color="#FDF8E7"/>
</linearGradient>
</defs>
</svg>
