<svg width="1440" height="826" viewBox="0 0 1440 826" fill="none" xmlns="http://www.w3.org/2000/svg">
<path d="M1337.98 386C1402.78 412 1480.31 472.5 1510.98 499.5V542.5H-31.5215V456.5C-1.35486 440.333 75.7786 403.6 142.979 386C226.979 364 398.979 421 455.479 456.5C511.979 492 616.479 500.5 675.979 487.5C735.479 474.5 815.479 435.5 854.479 427C893.479 418.5 965.979 369 999.979 350C1033.98 331 1066.48 289.5 1108.98 279C1151.48 268.5 1256.98 353.5 1337.98 386Z" fill="url(#paint0_linear_309_2853)" fill-opacity="0.6"/>
<path d="M1397.97 503.97C1467.69 540.38 1557.67 590.494 1593.94 611L-14.062 611L-14.062 529.977C23.929 512.472 124.769 472.161 224.198 450.955C348.486 424.448 439.252 488.466 570.759 477.463C702.266 466.46 787.875 375.934 886.893 349.427C985.91 322.919 1028.2 422.947 1138.56 450.955C1248.92 478.963 1310.81 458.457 1397.97 503.97Z" fill="url(#paint1_linear_309_2853)" fill-opacity="0.6"/>
<path d="M1224.99 509.446C1384.94 527.054 1464.88 511.313 1484.86 501.242L1461.28 836.685L-79.5272 790.417L-73.8394 601.002C-6.89215 576.001 177.798 530.223 380.983 547.13C634.963 568.262 685.731 526.768 851.643 482.227C1017.55 437.687 1025.06 487.435 1224.99 509.446Z" fill="url(#paint2_linear_309_2853)" fill-opacity="0.8"/>
<path d="M1458 148.324C1479.6 170.724 1502 170.324 1510.5 167.324L1534.5 191.824C1526.5 205.657 1499.7 232.624 1456.5 229.824C1402.5 226.324 1448 218.324 1421.5 216.824C1395 215.324 1418.5 228.824 1397 241.324C1375.5 253.824 1372 238.824 1346 223.824C1320 208.824 1325.5 223.824 1295 233.324C1264.5 242.824 1252.5 223.824 1237 205.324C1221.5 186.824 1226 212.324 1199 223.824C1172 235.324 1146 212.324 1124 205.324C1102 198.324 1087 212.824 1069 212.324C1051 211.824 1060.5 191.824 1018.5 205.324C984.9 216.124 961.5 200.824 954 191.824C987 188.824 978.5 186.324 1010.5 170.824C1042.5 155.324 1045.5 154.824 1069 166.324C1092.5 177.824 1104 168.824 1135 154.824C1166 140.824 1175.5 148.324 1199 154.824C1222.5 161.324 1229.5 148.324 1256.5 133.824C1283.5 119.324 1286.5 135.824 1307.5 133.824C1328.5 131.824 1316 105.824 1346 109.324C1376 112.824 1365 140.324 1389.5 129.324C1414 118.324 1431 120.324 1458 148.324Z" fill="#E5E8FB"/>
<path d="M273.271 228.54C286.183 241.949 299 237 307.5 239.5C310.5 240.333 317.4 242.9 321 246.5C324.6 250.1 339.833 250.667 347 250.5C346 252.14 341.7 255.336 332.5 255C321 254.58 323.5 253.161 319 254.58C314.218 262.861 298.198 279.004 272.375 277.328C240.096 275.233 267.294 270.444 251.453 269.546C235.612 268.648 249.66 276.73 236.808 284.213C223.956 291.695 221.864 282.716 206.322 273.737C190.78 264.757 194.068 273.737 175.836 279.423C157.605 285.11 150.432 273.737 141.166 262.662C131.901 251.587 134.591 266.852 118.451 273.737C102.312 280.621 86.77 266.852 73.6193 262.662C60.4686 258.472 51.5022 267.152 40.7425 266.852C29.9828 266.553 35.6615 254.58 10.5556 262.662C-9.5292 269.127 -23.5168 259.968 -28 254.58C-8.2739 252.785 -13.3549 251.288 5.77347 242.009C24.9018 232.731 26.6951 232.431 40.7425 239.315C54.7898 246.2 61.6641 240.812 80.1947 232.431C98.7252 224.05 104.404 228.54 118.451 232.431C132.499 236.322 136.683 228.54 152.823 219.86C168.962 211.18 170.755 221.057 183.308 219.86C195.861 218.663 188.389 203.099 206.322 205.194C224.255 207.289 217.68 223.751 232.325 217.166C246.97 210.581 257.132 211.779 273.271 228.54Z" fill="#E7EAFA"/>
<path d="M500.319 126.755C517.775 148.831 535.104 140.683 546.596 144.799C550.652 146.171 559.981 150.396 564.848 156.323C569.715 162.25 590.311 163.183 600 162.909C598.648 165.608 592.834 170.87 580.396 170.317C564.848 169.626 568.228 167.289 562.144 169.626C555.679 183.26 534.02 209.837 499.107 207.077C455.465 203.628 492.237 195.743 470.821 194.265C449.404 192.787 468.396 206.092 451.02 218.411C433.645 230.73 430.816 215.947 409.804 201.164C388.791 186.381 393.236 201.164 368.587 210.526C343.937 219.889 334.239 201.164 321.713 182.931C309.186 164.699 312.823 189.83 291.002 201.164C269.182 212.498 248.169 189.83 230.389 182.931C212.609 176.032 200.487 190.323 185.94 189.83C171.393 189.337 179.07 169.626 145.127 182.931C117.973 193.575 99.0613 178.496 93 169.626C119.67 166.67 112.8 164.206 138.662 148.93C164.523 133.654 166.948 133.161 185.94 144.495C204.932 155.829 214.226 146.959 239.279 133.161C264.333 119.364 272.01 126.755 291.002 133.161C309.994 139.567 315.651 126.755 337.472 112.465C359.293 98.1744 361.717 114.436 378.689 112.465C395.661 110.494 385.558 84.8695 409.804 88.3189C434.049 91.7684 425.159 118.871 444.959 108.03C464.759 97.1888 478.498 99.1599 500.319 126.755Z" fill="#E3E6F9"/>
<defs>
<linearGradient id="paint0_linear_309_2853" x1="740" y1="296.5" x2="740" y2="543" gradientUnits="userSpaceOnUse">
<stop stop-color="#D4D8F4" stop-opacity="0.8"/>
<stop offset="1" stop-color="#F3F6FF"/>
</linearGradient>
<linearGradient id="paint1_linear_309_2853" x1="738.5" y1="453" x2="740.5" y2="574" gradientUnits="userSpaceOnUse">
<stop stop-color="#D4D8F4" stop-opacity="0.8"/>
<stop offset="1" stop-color="#F7F8FF"/>
</linearGradient>
<linearGradient id="paint2_linear_309_2853" x1="713.5" y1="528" x2="713.5" y2="682" gradientUnits="userSpaceOnUse">
<stop stop-color="#DDE0F4" stop-opacity="0.878431"/>
<stop offset="1" stop-color="#F7F8FF"/>
</linearGradient>
</defs>
</svg>
