<svg width="36" height="36" viewBox="0 0 36 36" fill="none" xmlns="http://www.w3.org/2000/svg">
<rect width="36" height="36" rx="4" fill="#F7F8FF"/>
<mask id="mask0_1181_4694" style="mask-type:alpha" maskUnits="userSpaceOnUse" x="0" y="0" width="36" height="36">
<rect width="36" height="36" fill="#D9D9D9"/>
</mask>
<g mask="url(#mask0_1181_4694)">
<path d="M18.365 20.1461L12.131 26.3801C11.8978 26.6134 11.6009 26.73 11.2404 26.73C10.88 26.73 10.5831 26.6134 10.3499 26.3801C10.1166 26.1469 10 25.85 10 25.4896C10 25.1291 10.1166 24.8322 10.3499 24.599L16.5839 18.365L10.3499 12.131C10.1166 11.8978 10 11.6009 10 11.2404C10 10.88 10.1166 10.5831 10.3499 10.3499C10.5831 10.1166 10.88 10 11.2404 10C11.6009 10 11.8978 10.1166 12.131 10.3499L18.365 16.5839L24.599 10.3499C24.8322 10.1166 25.1291 10 25.4896 10C25.85 10 26.1469 10.1166 26.3801 10.3499C26.6134 10.5831 26.73 10.88 26.73 11.2404C26.73 11.6009 26.6134 11.8978 26.3801 12.131L20.1461 18.365L26.3801 24.599C26.6134 24.8322 26.73 25.1291 26.73 25.4896C26.73 25.85 26.6134 26.1469 26.3801 26.3801C26.1469 26.6134 25.85 26.73 25.4896 26.73C25.1291 26.73 24.8322 26.6134 24.599 26.3801L18.365 20.1461Z" fill="#3A66D6"/>
</g>
</svg>
