<svg width="20" height="20" viewBox="0 0 20 20" fill="none" xmlns="http://www.w3.org/2000/svg">
<mask id="mask0_502_2716" style="mask-type:alpha" maskUnits="userSpaceOnUse" x="0" y="0" width="20" height="20">
<rect width="20" height="20" fill="#D9D9D9"/>
</mask>
<g mask="url(#mask0_502_2716)">
<path d="M9.99546 13.7756C10.1613 13.7756 10.3018 13.7195 10.4169 13.6073C10.5321 13.495 10.5896 13.356 10.5896 13.1902C10.5896 13.0243 10.5335 12.8838 10.4213 12.7687C10.3091 12.6537 10.17 12.5962 10.0042 12.5962C9.83838 12.5962 9.69789 12.6523 9.58275 12.7643C9.46762 12.8766 9.41005 13.0156 9.41005 13.1814C9.41005 13.3473 9.46616 13.4877 9.57838 13.6029C9.6906 13.718 9.82963 13.7756 9.99546 13.7756ZM9.45817 11.0641H10.5415V6.06413H9.45817V11.0641ZM10.0069 17.5833C8.96373 17.5833 7.98123 17.3859 7.05942 16.9912C6.13761 16.5965 5.33081 16.0534 4.639 15.3618C3.9472 14.6703 3.4038 13.8641 3.0088 12.9433C2.61393 12.0226 2.4165 11.0388 2.4165 9.99183C2.4165 8.94489 2.61387 7.96399 3.00859 7.04913C3.40331 6.13426 3.94643 5.33093 4.63796 4.63913C5.32949 3.94732 6.13567 3.40392 7.0565 3.00892C7.9772 2.61406 8.96102 2.41663 10.008 2.41663C11.0549 2.41663 12.0358 2.61399 12.9507 3.00871C13.8655 3.40343 14.6689 3.94656 15.3607 4.63808C16.0525 5.32961 16.5959 6.13413 16.9909 7.05163C17.3857 7.96926 17.5832 8.94968 17.5832 9.99288C17.5832 11.0361 17.3858 12.0186 16.9911 12.9404C16.5964 13.8622 16.0532 14.669 15.3617 15.3608C14.6702 16.0526 13.8657 16.596 12.9482 16.991C12.0305 17.3859 11.0501 17.5833 10.0069 17.5833ZM9.99984 16.5C11.8054 16.5 13.3401 15.868 14.604 14.6041C15.8679 13.3402 16.4998 11.8055 16.4998 9.99996C16.4998 8.1944 15.8679 6.65968 14.604 5.39579C13.3401 4.1319 11.8054 3.49996 9.99984 3.49996C8.19428 3.49996 6.65956 4.1319 5.39567 5.39579C4.13178 6.65968 3.49984 8.1944 3.49984 9.99996C3.49984 11.8055 4.13178 13.3402 5.39567 14.6041C6.65956 15.868 8.19428 16.5 9.99984 16.5Z" fill="#FF3300"/>
</g>
</svg>
