<svg width="48" height="49" viewBox="0 0 48 49" fill="none" xmlns="http://www.w3.org/2000/svg">
<mask id="mask0_443_2001" style="mask-type:alpha" maskUnits="userSpaceOnUse" x="0" y="0" width="48" height="49">
<rect y="0.5" width="48" height="48" fill="#D9D9D9"/>
</mask>
<g mask="url(#mask0_443_2001)">
<path d="M10.769 42.5C10.0007 42.5 9.347 42.2306 8.808 41.692C8.26933 41.153 8 40.4993 8 39.731V12.8075C8 12.0391 8.26933 11.3855 8.808 10.8465C9.347 10.3078 10.0007 10.0385 10.769 10.0385H14.904V6.03845H16.6925V10.0385H31.4615V6.03845H33.1345V10.0385H37.231C37.9993 10.0385 38.653 10.3078 39.192 10.8465C39.7307 11.3855 40 12.0391 40 12.8075V39.731C40 40.4993 39.7307 41.153 39.192 41.692C38.653 42.2306 37.9993 42.5 37.231 42.5H10.769ZM10.769 40.9615H37.231C37.5387 40.9615 37.8207 40.8333 38.077 40.577C38.3333 40.3206 38.4615 40.0386 38.4615 39.731V21.5H9.5385V39.731C9.5385 40.0386 9.66667 40.3206 9.923 40.577C10.1793 40.8333 10.4613 40.9615 10.769 40.9615ZM9.5385 19.9615H38.4615V12.8075C38.4615 12.4998 38.3333 12.2178 38.077 11.9615C37.8207 11.7051 37.5387 11.577 37.231 11.577H10.769C10.4613 11.577 10.1793 11.7051 9.923 11.9615C9.66667 12.2178 9.5385 12.4998 9.5385 12.8075V19.9615ZM15 27.0385V25.5H33V27.0385H15ZM15 35.5V33.9615H26.9885V35.5H15Z" fill="#E76F51"/>
</g>
</svg>
