<svg width="48" height="49" viewBox="0 0 48 49" fill="none" xmlns="http://www.w3.org/2000/svg">
<mask id="mask0_443_2009" style="mask-type:alpha" maskUnits="userSpaceOnUse" x="0" y="0" width="48" height="49">
<rect y="0.5" width="48" height="48" fill="#D9D9D9"/>
</mask>
<g mask="url(#mask0_443_2009)">
<path d="M10.769 42.5001C10.0007 42.5001 9.347 42.2307 8.808 41.6921C8.26933 41.1531 8 40.4994 8 39.7311V12.8076C8 12.0392 8.26933 11.3856 8.808 10.8466C9.347 10.3079 10.0007 10.0386 10.769 10.0386H14.904V6.03857H16.6925V10.0386H31.4615V6.03857H33.1345V10.0386H37.231C37.9993 10.0386 38.653 10.3079 39.192 10.8466C39.7307 11.3856 40 12.0392 40 12.8076V39.7311C40 40.4994 39.7307 41.1531 39.192 41.6921C38.653 42.2307 37.9993 42.5001 37.231 42.5001H10.769ZM10.769 40.9616H37.231C37.5387 40.9616 37.8207 40.8334 38.077 40.5771C38.3333 40.3207 38.4615 40.0387 38.4615 39.7311V21.5001H9.5385V39.7311C9.5385 40.0387 9.66667 40.3207 9.923 40.5771C10.1793 40.8334 10.4613 40.9616 10.769 40.9616ZM9.5385 19.9616H38.4615V12.8076C38.4615 12.4999 38.3333 12.2179 38.077 11.9616C37.8207 11.7052 37.5387 11.5771 37.231 11.5771H10.769C10.4613 11.5771 10.1793 11.7052 9.923 11.9616C9.66667 12.2179 9.5385 12.4999 9.5385 12.8076V19.9616ZM15 27.0386V25.5001H33V27.0386H15ZM15 35.5001V33.9616H26.9885V35.5001H15Z" fill="#3A66D6"/>
</g>
</svg>
