<svg width="36" height="36" viewBox="0 0 36 36" fill="none" xmlns="http://www.w3.org/2000/svg">
<mask id="mask0_1194_5529" style="mask-type:alpha" maskUnits="userSpaceOnUse" x="0" y="0" width="36" height="36">
<rect width="36" height="36" fill="#D9D9D9"/>
</mask>
<g mask="url(#mask0_1194_5529)">
<path d="M12.4616 26.5384H13.7164V19.0384H18.2884L19.7884 22.0384H26.5384V13.9616H22.2116L20.7116 10.9616H12.4616V26.5384ZM20.5991 20.7836L19.0991 17.7836H13.7164V12.1875H19.9009L21.4009 15.1875H25.3125V20.7836H20.5991ZM18.0049 31.5C16.1439 31.5 14.3965 31.1458 12.7628 30.4373C11.129 29.7288 9.698 28.761 8.46975 27.534C7.2415 26.307 6.27287 24.8774 5.56387 23.2451C4.85462 21.6129 4.5 19.8661 4.5 18.0049C4.5 16.1381 4.85425 14.383 5.56275 12.7395C6.27125 11.0962 7.239 9.66675 8.466 8.451C9.693 7.23525 11.1226 6.27287 12.7549 5.56387C14.3871 4.85462 16.1339 4.5 17.9951 4.5C19.8619 4.5 21.617 4.85425 23.2605 5.56275C24.9038 6.27125 26.3333 7.23275 27.549 8.44725C28.7647 9.66175 29.7271 11.09 30.4361 12.732C31.1454 14.3738 31.5 16.1281 31.5 17.9951C31.5 19.8561 31.1458 21.6035 30.4373 23.2372C29.7288 24.871 28.7673 26.302 27.5527 27.5303C26.3382 28.7585 24.91 29.7271 23.268 30.4361C21.6262 31.1454 19.8719 31.5 18.0049 31.5ZM18 30.3461C21.4345 30.3461 24.3509 29.1456 26.7491 26.7446C29.1471 24.3436 30.3461 21.4287 30.3461 18C30.3461 14.5655 29.1471 11.6491 26.7491 9.25088C24.3509 6.85288 21.4345 5.65388 18 5.65388C14.5712 5.65388 11.6564 6.85288 9.25537 9.25088C6.85437 11.6491 5.65388 14.5655 5.65388 18C5.65388 21.4287 6.85437 24.3436 9.25537 26.7446C11.6564 29.1456 14.5712 30.3461 18 30.3461Z" fill="#E76F51"/>
</g>
</svg>
