<svg width="20" height="21" viewBox="0 0 20 21" fill="none" xmlns="http://www.w3.org/2000/svg">
<path d="M7.5 11.8823H10L10.725 13.3323C10.8083 13.5156 10.9333 13.6531 11.1 13.7448C11.2667 13.8364 11.4417 13.8823 11.625 13.8823H15C15.2833 13.8823 15.5208 13.7864 15.7125 13.5948C15.9042 13.4031 16 13.1656 16 12.8823V8.88226C16 8.59893 15.9042 8.36143 15.7125 8.16976C15.5208 7.9781 15.2833 7.88226 15 7.88226H13L12.275 6.43226C12.1917 6.24893 12.0667 6.11143 11.9 6.01976C11.7333 5.9281 11.5583 5.88226 11.375 5.88226H7C6.71667 5.88226 6.47917 5.9781 6.2875 6.16976C6.09583 6.36143 6 6.59893 6 6.88226V16.1323C6 16.3489 6.07083 16.5281 6.2125 16.6698C6.35417 16.8114 6.53333 16.8823 6.75 16.8823C6.96667 16.8823 7.14583 16.8114 7.2875 16.6698C7.42917 16.5281 7.5 16.3489 7.5 16.1323V11.8823ZM10 20.8823C8.61667 20.8823 7.31667 20.6198 6.1 20.0948C4.88333 19.5698 3.825 18.8573 2.925 17.9573C2.025 17.0573 1.3125 15.9989 0.7875 14.7823C0.2625 13.5656 0 12.2656 0 10.8823C0 9.49893 0.2625 8.19893 0.7875 6.98226C1.3125 5.7656 2.025 4.70726 2.925 3.80726C3.825 2.90726 4.88333 2.19476 6.1 1.66976C7.31667 1.14476 8.61667 0.882263 10 0.882263C11.3833 0.882263 12.6833 1.14476 13.9 1.66976C15.1167 2.19476 16.175 2.90726 17.075 3.80726C17.975 4.70726 18.6875 5.7656 19.2125 6.98226C19.7375 8.19893 20 9.49893 20 10.8823C20 12.2656 19.7375 13.5656 19.2125 14.7823C18.6875 15.9989 17.975 17.0573 17.075 17.9573C16.175 18.8573 15.1167 19.5698 13.9 20.0948C12.6833 20.6198 11.3833 20.8823 10 20.8823Z" fill="#3A66D6"/>
</svg>
