<svg width="48" height="48" viewBox="0 0 48 48" fill="none" xmlns="http://www.w3.org/2000/svg">
<mask id="mask0_317_3342" style="mask-type:alpha" maskUnits="userSpaceOnUse" x="0" y="0" width="48" height="48">
<rect width="48" height="48" fill="#D9D9D9"/>
</mask>
<g mask="url(#mask0_317_3342)">
<path d="M16.6154 35.3846H18.2885V25.3846H24.3846L26.3846 29.3846H35.3846V18.6154H29.6154L27.6154 14.6154H16.6154V35.3846ZM27.4654 27.7115L25.4654 23.7115H18.2885V16.25H26.5346L28.5346 20.25H33.75V27.7115H27.4654ZM24.0067 42C21.5253 42 19.1954 41.5277 17.017 40.583C14.8386 39.6384 12.9305 38.348 11.2929 36.712C9.65538 35.0759 8.36383 33.1697 7.4183 30.9933C6.47277 28.8169 6 26.4881 6 24.0067C6 21.5176 6.47232 19.1774 7.41695 16.9862C8.36162 14.795 9.65198 12.8889 11.2881 11.268C12.9241 9.64705 14.8303 8.36383 17.0067 7.4183C19.1831 6.47277 21.5119 6 23.9933 6C26.4824 6 28.8226 6.47232 31.0138 7.41695C33.205 8.36162 35.1111 9.64365 36.732 11.263C38.353 12.8824 39.6362 14.7867 40.5817 16.9759C41.5272 19.1651 42 21.5042 42 23.9933C42 26.4747 41.5277 28.8046 40.583 30.983C39.6384 33.1614 38.3564 35.0695 36.737 36.7071C35.1176 38.3446 33.2133 39.6362 31.0241 40.5817C28.8349 41.5272 26.4958 42 24.0067 42ZM24 40.4616C28.5795 40.4616 32.468 38.8609 35.6654 35.6596C38.8628 32.4583 40.4616 28.5718 40.4616 24C40.4616 19.4205 38.8628 15.532 35.6654 12.3346C32.468 9.13717 28.5795 7.53845 24 7.53845C19.4282 7.53845 15.5417 9.13717 12.3404 12.3346C9.1391 15.532 7.53845 19.4205 7.53845 24C7.53845 28.5718 9.1391 32.4583 12.3404 35.6596C15.5417 38.8609 19.4282 40.4616 24 40.4616Z" fill="#2D718F"/>
</g>
</svg>
