<svg width="18" height="18" viewBox="0 0 18 18" fill="none" xmlns="http://www.w3.org/2000/svg">
<mask id="mask0_404_799" style="mask-type:alpha" maskUnits="userSpaceOnUse" x="0" y="0" width="18" height="18">
<rect width="18" height="18" fill="#D9D9D9"/>
</mask>
<g mask="url(#mask0_404_799)">
<path d="M9 12.75C9.2125 12.75 9.39063 12.6781 9.53438 12.5343C9.67813 12.3906 9.75 12.2125 9.75 12C9.75 11.7875 9.67813 11.6093 9.53438 11.4656C9.39063 11.3218 9.2125 11.25 9 11.25C8.7875 11.25 8.60938 11.3218 8.46563 11.4656C8.32188 11.6093 8.25 11.7875 8.25 12C8.25 12.2125 8.32188 12.3906 8.46563 12.5343C8.60938 12.6781 8.7875 12.75 9 12.75ZM8.25 9.74997H9.75V5.24997H8.25V9.74997ZM9 16.5C7.9625 16.5 6.9875 16.3031 6.075 15.9093C5.1625 15.5156 4.36875 14.9812 3.69375 14.3062C3.01875 13.6312 2.48438 12.8375 2.09063 11.925C1.69687 11.0125 1.5 10.0375 1.5 8.99997C1.5 7.96247 1.69687 6.98747 2.09063 6.07497C2.48438 5.16247 3.01875 4.36872 3.69375 3.69372C4.36875 3.01872 5.1625 2.48434 6.075 2.09059C6.9875 1.69684 7.9625 1.49997 9 1.49997C10.0375 1.49997 11.0125 1.69684 11.925 2.09059C12.8375 2.48434 13.6313 3.01872 14.3063 3.69372C14.9813 4.36872 15.5156 5.16247 15.9094 6.07497C16.3031 6.98747 16.5 7.96247 16.5 8.99997C16.5 10.0375 16.3031 11.0125 15.9094 11.925C15.5156 12.8375 14.9813 13.6312 14.3063 14.3062C13.6313 14.9812 12.8375 15.5156 11.925 15.9093C11.0125 16.3031 10.0375 16.5 9 16.5ZM9 15C10.675 15 12.0938 14.4187 13.2563 13.2562C14.4187 12.0937 15 10.675 15 8.99997C15 7.32497 14.4187 5.90622 13.2563 4.74372C12.0938 3.58122 10.675 2.99997 9 2.99997C7.325 2.99997 5.90625 3.58122 4.74375 4.74372C3.58125 5.90622 3 7.32497 3 8.99997C3 10.675 3.58125 12.0937 4.74375 13.2562C5.90625 14.4187 7.325 15 9 15Z" fill="#A0A6B1"/>
</g>
</svg>
