<svg width="48" height="49" viewBox="0 0 48 49" fill="none" xmlns="http://www.w3.org/2000/svg">
<mask id="mask0_404_1592" style="mask-type:alpha" maskUnits="userSpaceOnUse" x="0" y="0" width="48" height="49">
<rect y="0.5" width="48" height="48" fill="#D9D9D9"/>
</mask>
<g mask="url(#mask0_404_1592)">
<path d="M14.3193 27.5885C14.7577 27.5885 15.1237 27.4417 15.4173 27.1481C15.7109 26.8545 15.8577 26.4949 15.8577 26.0693C15.8577 25.6436 15.7109 25.2776 15.4173 24.9712C15.1237 24.6648 14.7641 24.5115 14.3385 24.5115C13.9128 24.5115 13.5468 24.6648 13.2404 24.9712C12.934 25.2776 12.7808 25.6372 12.7808 26.05C12.7808 26.4885 12.934 26.8545 13.2404 27.1481C13.5468 27.4417 13.9064 27.5885 14.3193 27.5885ZM14.3193 22.05C14.7577 22.05 15.1237 21.9032 15.4173 21.6096C15.7109 21.316 15.8577 20.9564 15.8577 20.5307C15.8577 20.1051 15.7109 19.7391 15.4173 19.4327C15.1237 19.1263 14.7641 18.9731 14.3385 18.9731C13.9128 18.9731 13.5468 19.1263 13.2404 19.4327C12.934 19.7391 12.7808 20.0987 12.7808 20.5116C12.7808 20.95 12.934 21.316 13.2404 21.6096C13.5468 21.9032 13.9064 22.05 14.3193 22.05ZM14.3193 16.5116C14.7577 16.5116 15.1237 16.3647 15.4173 16.0711C15.7109 15.7775 15.8577 15.4179 15.8577 14.9923C15.8577 14.5667 15.7109 14.2007 15.4173 13.8943C15.1237 13.5878 14.7641 13.4346 14.3385 13.4346C13.9128 13.4346 13.5468 13.5878 13.2404 13.8943C12.934 14.2007 12.7808 14.5603 12.7808 14.9731C12.7808 15.4115 12.934 15.7775 13.2404 16.0711C13.5468 16.3647 13.9064 16.5116 14.3193 16.5116ZM20.4615 26.8193H29V25.2808H20.4615V26.8193ZM20.4615 21.2807H35.0116V19.7423H20.4615V21.2807ZM20.4615 15.7423H35.0116V14.2039H20.4615V15.7423ZM6 40.6539V9.2692C6 8.50063 6.26938 7.84695 6.80815 7.30815C7.34695 6.76938 8.00063 6.5 8.7692 6.5H39.2308C39.9994 6.5 40.653 6.76938 41.1918 7.30815C41.7306 7.84695 42 8.50063 42 9.2692V31.7308C42 32.4994 41.7306 33.1531 41.1918 33.6919C40.653 34.2306 39.9994 34.5 39.2308 34.5H12.1539L6 40.6539ZM11.4692 32.9615H39.2308C39.5385 32.9615 39.8205 32.8333 40.077 32.577C40.3334 32.3205 40.4616 32.0385 40.4616 31.7308V9.2692C40.4616 8.96153 40.3334 8.67948 40.077 8.42305C39.8205 8.16665 39.5385 8.03845 39.2308 8.03845H8.7692C8.46153 8.03845 8.17948 8.16665 7.92305 8.42305C7.66665 8.67948 7.53845 8.96153 7.53845 9.2692V37.0385L11.4692 32.9615Z" fill="#E76F51"/>
</g>
</svg>
