<svg width="24" height="24" viewBox="0 0 24 24" fill="none" xmlns="http://www.w3.org/2000/svg">
<mask id="mask0_443_1975" style="mask-type:alpha" maskUnits="userSpaceOnUse" x="0" y="0" width="24" height="24">
<rect width="24" height="24" fill="#D9D9D9"/>
</mask>
<g mask="url(#mask0_443_1975)">
<path d="M11.9918 13.8554L7.10069 18.6441C6.87076 18.8707 6.58336 18.9891 6.23847 18.9994C5.89358 19.0097 5.59572 18.8912 5.34489 18.6441C5.11496 18.4175 5 18.1292 5 17.779C5 17.4289 5.11496 17.1405 5.34489 16.914L10.2047 12.1253C10.6854 11.6516 11.2812 11.4147 11.9918 11.4147C12.7025 11.4147 13.2982 11.6516 13.779 12.1253L18.6388 16.914C18.8687 17.1405 18.9889 17.4238 18.9994 17.7636C19.0098 18.1034 18.8896 18.3969 18.6388 18.6441C18.4089 18.8707 18.1162 18.9839 17.7609 18.9839C17.4056 18.9839 17.1129 18.8707 16.883 18.6441L11.9918 13.8554ZM11.9918 6.44068L7.10069 11.2294C6.87076 11.4559 6.58336 11.5744 6.23847 11.5847C5.89358 11.5949 5.59572 11.4765 5.34489 11.2294C5.11496 11.0028 5 10.7145 5 10.3643C5 10.0142 5.11496 9.72582 5.34489 9.49926L10.2047 4.71058C10.6854 4.23686 11.2812 4 11.9918 4C12.7025 4 13.2982 4.23686 13.779 4.71058L18.6388 9.49926C18.8687 9.72582 18.9889 10.009 18.9994 10.3489C19.0098 10.6887 18.8896 10.9822 18.6388 11.2294C18.4089 11.4559 18.1162 11.5692 17.7609 11.5692C17.4056 11.5692 17.1129 11.4559 16.883 11.2294L11.9918 6.44068Z" fill="#FEF8E3"/>
</g>
</svg>
