<svg width="25" height="24" viewBox="0 0 25 24" fill="none" xmlns="http://www.w3.org/2000/svg">
<mask id="mask0_403_5585" style="mask-type:alpha" maskUnits="userSpaceOnUse" x="0" y="0" width="25" height="24">
<rect x="0.5" width="24" height="24" fill="#D9D9D9"/>
</mask>
<g mask="url(#mask0_403_5585)">
<path d="M16.2731 12.973L15.1501 11.85C15.3001 11.0218 15.0638 10.2773 14.4413 9.61625C13.819 8.95542 13.0552 8.7 12.1501 8.85L11.0271 7.727C11.2527 7.62567 11.4842 7.54967 11.7213 7.499C11.9585 7.44833 12.2181 7.423 12.5001 7.423C13.6347 7.423 14.5979 7.81883 15.3896 8.6105C16.1812 9.40217 16.5771 10.3653 16.5771 11.5C16.5771 11.782 16.5517 12.0448 16.5011 12.2885C16.4504 12.532 16.3744 12.7602 16.2731 12.973ZM19.4538 16.0845L18.3501 15.05C18.9834 14.5667 19.5459 14.0375 20.0376 13.4625C20.5292 12.8875 20.9501 12.2333 21.3001 11.5C20.4667 9.81667 19.2709 8.47917 17.7126 7.4875C16.1542 6.49583 14.4167 6 12.5001 6C12.0167 6 11.5417 6.03333 11.0751 6.1C10.6084 6.16667 10.1501 6.26667 9.70007 6.4L8.53482 5.23475C9.16682 4.98342 9.81233 4.79817 10.4713 4.679C11.1303 4.55967 11.8066 4.5 12.5001 4.5C14.8436 4.5 16.957 5.14617 18.8403 6.4385C20.7237 7.73083 22.0974 9.418 22.9616 11.5C22.5911 12.3935 22.1126 13.2275 21.5261 14.002C20.9394 14.7763 20.2487 15.4705 19.4538 16.0845ZM20.2616 21.8692L16.2156 17.8538C15.7027 18.0436 15.1344 18.1988 14.5106 18.3193C13.8869 18.4397 13.2167 18.5 12.5001 18.5C10.1501 18.5 8.03666 17.8538 6.15982 16.5615C4.28282 15.2692 2.90907 13.582 2.03857 11.5C2.40774 10.6167 2.88466 9.79267 3.46932 9.028C4.05399 8.26317 4.69757 7.6 5.40007 7.0385L2.63082 4.2385L3.68482 3.18475L21.3153 20.8152L20.2616 21.8692ZM6.45407 8.09225C5.92574 8.51275 5.41191 9.01825 4.91257 9.60875C4.41324 10.1991 4.00907 10.8295 3.70007 11.5C4.53341 13.1833 5.72924 14.5208 7.28757 15.5125C8.84591 16.5042 10.5834 17 12.5001 17C12.9552 17 13.4085 16.9615 13.8598 16.8845C14.311 16.8077 14.6937 16.7282 15.0078 16.6462L13.7423 15.35C13.5718 15.4192 13.3744 15.4742 13.1501 15.5152C12.9257 15.5564 12.7091 15.577 12.5001 15.577C11.3654 15.577 10.4022 15.1812 9.61058 14.3895C8.81891 13.5978 8.42307 12.6347 8.42307 11.5C8.42307 11.2975 8.44366 11.0857 8.48483 10.8645C8.52583 10.6433 8.58091 10.4411 8.65007 10.2577L6.45407 8.09225Z" fill="#4D54AB"/>
</g>
</svg>
