<svg width="25" height="24" viewBox="0 0 25 24" fill="none" xmlns="http://www.w3.org/2000/svg">
<mask id="mask0_469_2669" style="mask-type:alpha" maskUnits="userSpaceOnUse" x="0" y="0" width="25" height="24">
<rect x="0.5" width="24" height="24" fill="#D9D9D9"/>
</mask>
<g mask="url(#mask0_469_2669)">
<path d="M12.5023 15.577C13.6355 15.577 14.5979 15.1804 15.3896 14.3872C16.1812 13.5941 16.5771 12.6309 16.5771 11.4978C16.5771 10.3646 16.1805 9.40217 15.3873 8.6105C14.5942 7.81883 13.631 7.423 12.4978 7.423C11.3647 7.423 10.4022 7.81958 9.61058 8.61275C8.81891 9.40592 8.42307 10.3691 8.42307 11.5023C8.42307 12.6354 8.81966 13.5978 9.61282 14.3895C10.406 15.1812 11.3692 15.577 12.5023 15.577ZM12.5001 14.2C11.7501 14.2 11.1126 13.9375 10.5876 13.4125C10.0626 12.8875 9.80007 12.25 9.80007 11.5C9.80007 10.75 10.0626 10.1125 10.5876 9.5875C11.1126 9.0625 11.7501 8.8 12.5001 8.8C13.2501 8.8 13.8876 9.0625 14.4126 9.5875C14.9376 10.1125 15.2001 10.75 15.2001 11.5C15.2001 12.25 14.9376 12.8875 14.4126 13.4125C13.8876 13.9375 13.2501 14.2 12.5001 14.2ZM12.5013 18.5C10.2018 18.5 8.10657 17.8657 6.21557 16.597C4.32457 15.3285 2.93224 13.6295 2.03857 11.5C2.93224 9.3705 4.32407 7.6715 6.21407 6.403C8.10424 5.13433 10.1992 4.5 12.4988 4.5C14.7983 4.5 16.8936 5.13433 18.7846 6.403C20.6756 7.6715 22.0679 9.3705 22.9616 11.5C22.0679 13.6295 20.6761 15.3285 18.7861 16.597C16.8959 17.8657 14.801 18.5 12.5013 18.5ZM12.5001 17C14.3834 17 16.1126 16.5042 17.6876 15.5125C19.2626 14.5208 20.4667 13.1833 21.3001 11.5C20.4667 9.81667 19.2626 8.47917 17.6876 7.4875C16.1126 6.49583 14.3834 6 12.5001 6C10.6167 6 8.88757 6.49583 7.31257 7.4875C5.73757 8.47917 4.53341 9.81667 3.70007 11.5C4.53341 13.1833 5.73757 14.5208 7.31257 15.5125C8.88757 16.5042 10.6167 17 12.5001 17Z" fill="#4D54AB"/>
</g>
</svg>
